<?xml version="1.0" encoding="utf-8"?>
<!-- Generator: Adobe Illustrator 16.0.0, SVG Export Plug-In . SVG Version: 6.00 Build 0)  -->
<!DOCTYPE svg PUBLIC "-//W3C//DTD SVG 1.1//EN" "http://www.w3.org/Graphics/SVG/1.1/DTD/svg11.dtd">
<svg version="1.1"
	 id="svg2" xmlns:dc="http://purl.org/dc/elements/1.1/" xmlns:cc="http://creativecommons.org/ns#" xmlns:rdf="http://www.w3.org/1999/02/22-rdf-syntax-ns#" xmlns:svg="http://www.w3.org/2000/svg" xmlns:sodipodi="http://sodipodi.sourceforge.net/DTD/sodipodi-0.dtd" xmlns:inkscape="http://www.inkscape.org/namespaces/inkscape" sodipodi:docname="hiking.svg" inkscape:version="0.48.2 r9819" inkscape:export-filename="/home/tai/svgc2c/hiking.png" inkscape:export-ydpi="4.5" inkscape:export-xdpi="4.5"
	 xmlns="http://www.w3.org/2000/svg" xmlns:xlink="http://www.w3.org/1999/xlink" x="0px" y="0px" width="320px" height="320px"
	 viewBox="0 0 320 320" enable-background="new 0 0 320 320" xml:space="preserve">
<g id="layer1" transform="translate(0,-732.36218)" inkscape:label="Calque 1" inkscape:groupmode="layer">
	
		<path id="path3007" sodipodi:type="arc" sodipodi:cx="173.57143" sodipodi:cy="41.071426" sodipodi:rx="27.857143" sodipodi:ry="28.214285" fill="#545455" d="
		M203.375,766.862c0,17.052-13.823,30.875-30.875,30.875s-30.875-13.823-30.875-30.875s13.823-30.875,30.875-30.875
		S203.375,749.81,203.375,766.862z"/>
	<path id="rect3777" fill="#545455" d="M223.95,805.433h2.503c9.414,0,17.047,7.632,17.047,17.047v76.713
		c0,9.415-7.633,17.047-17.047,17.047h-2.503c-9.415,0-17.048-7.632-17.048-17.047V822.48
		C206.902,813.065,214.535,805.433,223.95,805.433z"/>
	<path id="rect3777-3" fill="#545455" d="M172.529,800.919L172.529,800.919c16.883,0,30.568,15.131,30.568,33.796v85.399
		c0,18.665-13.686,33.796-30.568,33.796l0,0c-16.882,0-30.568-15.131-30.568-33.796v-85.399
		C141.961,816.05,155.647,800.919,172.529,800.919z"/>
	<path id="rect3799" fill="#545455" d="M184.459,901.96L184.459,901.96c8.654-1.526,17.065,5.142,18.785,14.893l20.254,114.87
		c1.72,9.752-3.902,18.894-12.559,20.42l0,0c-8.654,1.526-17.065-5.142-18.785-14.894L171.9,922.38
		C170.181,912.628,175.803,903.485,184.459,901.96z"/>
	<path id="rect3801" fill="#545455" d="M164.129,904.567L164.129,904.567c8.488,2.275,13.293,11.873,10.73,21.438l-30.189,112.667
		c-2.563,9.564-11.522,15.474-20.012,13.199l0,0c-8.49-2.274-13.294-11.872-10.731-21.437l30.189-112.668
		C146.68,908.202,155.639,902.293,164.129,904.567z"/>
	<path id="rect3803" fill="#545455" d="M171.029,814.489L171.029,814.489c4.467,5.708,3.283,13.821-2.645,18.123l-64.395,46.727
		c-5.927,4.301-14.354,3.161-18.82-2.547l0,0c-4.467-5.708-3.283-13.822,2.645-18.123l64.395-46.727
		C158.137,807.641,166.563,808.781,171.029,814.489z"/>
	<path id="rect3805" fill="#545455" d="M73.609,785.637L73.609,785.637c3.833-1.07,7.821,1.508,8.906,5.758l61.583,241.109
		c1.086,4.25-1.142,8.562-4.975,9.632l0,0c-3.833,1.069-7.821-1.508-8.906-5.758l-61.583-241.11
		C67.548,791.019,69.776,786.707,73.609,785.637z"/>
</g>
</svg>
