<?xml version="1.0" encoding="utf-8"?>
<!-- Generator: Adobe Illustrator 16.0.0, SVG Export Plug-In . SVG Version: 6.00 Build 0)  -->
<!DOCTYPE svg PUBLIC "-//W3C//DTD SVG 1.1//EN" "http://www.w3.org/Graphics/SVG/1.1/DTD/svg11.dtd">
<svg version="1.1"
	 id="svg2" xmlns:dc="http://purl.org/dc/elements/1.1/" xmlns:cc="http://creativecommons.org/ns#" xmlns:rdf="http://www.w3.org/1999/02/22-rdf-syntax-ns#" xmlns:svg="http://www.w3.org/2000/svg" xmlns:sodipodi="http://sodipodi.sourceforge.net/DTD/sodipodi-0.dtd" xmlns:inkscape="http://www.inkscape.org/namespaces/inkscape" inkscape:export-xdpi="4.5" inkscape:export-ydpi="4.5" inkscape:export-filename="/home/tai/svgc2c/ice_climbing_mini.png" inkscape:version="0.48.3.1 r9886" sodipodi:docname="ice_climbing.svg"
	 xmlns="http://www.w3.org/2000/svg" xmlns:xlink="http://www.w3.org/1999/xlink" x="0px" y="0px" width="320px" height="320px"
	 viewBox="0 0 320 320" enable-background="new 0 0 320 320" xml:space="preserve">
<g id="layer1" transform="translate(0,-732.36218)" inkscape:label="Calque 1" inkscape:groupmode="layer">
	
		<path id="path2996" sodipodi:ry="23.571428" sodipodi:rx="23.571428" sodipodi:cy="-2.1428576" sodipodi:cx="211.42857" sodipodi:type="arc" opacity="0.99" enable-background="new    " d="
		M309.889,824.206c0.006,13.334-10.799,24.147-24.133,24.153c-13.334,0.005-24.146-10.799-24.152-24.133c0-0.007,0-0.014,0-0.021
		c-0.006-13.334,10.799-24.147,24.133-24.153c13.335-0.005,24.146,10.799,24.152,24.133
		C309.889,824.192,309.889,824.199,309.889,824.206z"/>
	<path id="rect3769" d="M273.949,851.694L273.949,851.694c13.676,1.365,23.451,14.086,21.834,28.413l-6.945,61.55
		c-1.615,14.327-14.012,24.834-27.688,23.469l0,0c-13.676-1.365-23.451-14.086-21.834-28.413l6.945-61.551
		C247.878,860.835,260.273,850.328,273.949,851.694z"/>
	<path id="rect3779" d="M276.055,944.872L276.055,944.872c1.535,7.045-3.781,14.654-11.877,16.994l-50.426,14.578
		c-8.096,2.341-15.904-1.473-17.439-8.518l0,0c-1.537-7.048,3.78-14.654,11.877-16.996l50.427-14.578
		C266.71,934.013,274.518,937.827,276.055,944.872z"/>
	<path id="path3887" sodipodi:nodetypes="csccscc" inkscape:connector-curvature="0" d="M165.869,771.969
		c27.389-11.532,35.174-6.909,46.24-6.518c8.457,0.298,29.465,7.44,29.465,7.44l-3.225,12.125c0,0-18.861-6.568-24.539-7.677
		c-11.937-2.331-21.443-5.302-45.918,2.149C167.045,776.058,166.4,773.874,165.869,771.969L165.869,771.969z"/>
	<path id="path3044" sodipodi:nodetypes="ccccccc" inkscape:connector-curvature="0" opacity="0.2" enable-background="new    " d="
		M0,732.362l5.211,127.187l22.132,192.813l109.375,0.781l35.156-185.938l-1.562-53.125l-15.625-81.719"/>
	<path id="rect3793-8-3" d="M251.553,946.616L251.553,946.616c2.122-0.268,4.07,1.906,4.352,4.854l9.521,99.896
		c0.28,2.946-1.212,5.551-3.333,5.816l0,0c-2.122,0.269-4.069-1.904-4.352-4.853l-9.521-99.896
		C247.939,949.488,249.432,946.884,251.553,946.616z"/>
	<path id="rect3779-7" d="M218.572,957.186L218.572,957.186c4.066,5.955,1.992,15.004-4.635,20.209l-41.272,32.433
		c-6.626,5.206-15.295,4.601-19.362-1.354l0,0c-4.067-5.953-1.992-15.002,4.634-20.209l41.273-32.432
		C205.836,950.628,214.505,951.233,218.572,957.186z"/>
	<path id="rect3793-5" d="M252.738,879.75L252.738,879.75c-0.289,5.267-4.795,9.363-10.066,9.148l-55.139-2.248
		c-5.271-0.215-9.311-4.659-9.021-9.926l0,0c0.289-5.267,4.795-9.363,10.066-9.148l55.139,2.247
		C248.988,870.038,253.025,874.483,252.738,879.75z"/>
	<path id="rect3793-2" d="M264.52,866.206L264.52,866.206c-1.795,4.96-7.891,7.388-13.611,5.422l-59.879-20.568
		c-5.723-1.966-8.905-7.581-7.11-12.542l0,0c1.795-4.96,7.892-7.388,13.613-5.422l59.876,20.568
		C263.131,855.631,266.314,861.245,264.52,866.206z"/>
	<path id="rect3793-8-3-1" d="M161.863,921.711L161.863,921.711c0.347-2.097,3.018-3.583,5.967-3.319l99.969,8.938
		c2.948,0.265,5.059,2.179,4.713,4.274l0,0c-0.347,2.097-3.018,3.582-5.967,3.317l-99.969-8.938
		C163.628,925.722,161.518,923.807,161.863,921.711z"/>
	<path id="rect3793-8-4" d="M213.316,761.514L213.316,761.514c3.433,0.772,5.513,4.666,4.646,8.698l-16.912,78.75
		c-0.864,4.032-4.35,6.675-7.78,5.904l0,0c-3.433-0.771-5.513-4.666-4.646-8.698l16.912-78.75
		C206.402,763.385,209.887,760.742,213.316,761.514z"/>
</g>
</svg>
