<?xml version="1.0" encoding="utf-8"?>
<!-- Generator: Adobe Illustrator 16.0.0, SVG Export Plug-In . SVG Version: 6.00 Build 0)  -->
<!DOCTYPE svg PUBLIC "-//W3C//DTD SVG 1.1//EN" "http://www.w3.org/Graphics/SVG/1.1/DTD/svg11.dtd">
<svg version="1.1"
	 id="svg2" xmlns:dc="http://purl.org/dc/elements/1.1/" xmlns:cc="http://creativecommons.org/ns#" xmlns:rdf="http://www.w3.org/1999/02/22-rdf-syntax-ns#" xmlns:svg="http://www.w3.org/2000/svg" xmlns:sodipodi="http://sodipodi.sourceforge.net/DTD/sodipodi-0.dtd" xmlns:inkscape="http://www.inkscape.org/namespaces/inkscape" inkscape:version="0.48.2 r9819" sodipodi:docname="logo_c2c.svg"
	 xmlns="http://www.w3.org/2000/svg" xmlns:xlink="http://www.w3.org/1999/xlink" x="0px" y="0px" width="521.98px"
	 height="521.979px" viewBox="0 0 521.98 521.979" enable-background="new 0 0 521.98 521.979" xml:space="preserve">
<g id="g12" transform="matrix(1.25,0,0,-1.25,0,1052.5)" inkscape:label="ink_ext_XXXXXX" inkscape:groupmode="layer">
	<g id="g2936" transform="translate(2.5228132,103.43534)">
		<g id="g3028">
			<path id="path24" d="M239.955,583.106l1.312-0.88c0.062-0.048,2.523-1.878,2.523-1.878c0.337-0.252,0.565-0.636,0.647-1.083
				c0.073-0.435-0.011-0.898-0.226-1.277c-12.657-21.115-50.691-38.67-56.803-34.423c-0.339,0.236-0.596,0.62-0.678,1.061
				c-0.03,0.144-0.041,0.293-0.03,0.441c0.009,0.298,0.081,0.58,0.225,0.838l1.334,2.399c0.03,0.82,0.195,2.231,0.944,3.181
				l1.805,0.975c2.134,0.375,36.302,12.437,46.897,30.135C238.365,583.342,239.257,583.572,239.955,583.106"/>
			<path id="path26" d="M126.614,613.133c-13.305-25.703-62.98-56.306-65.656-56.895l-2.267-1.437
				c-0.954-1.38-1.159-3.414-1.191-4.594l-1.671-3.493c-0.185-0.364-0.277-0.784-0.288-1.205c-0.009-0.216,0.011-0.43,0.052-0.641
				c0.113-0.625,0.421-1.163,0.852-1.502c7.724-5.964,55.626,20.181,71.504,50.855c0.277,0.548,0.38,1.205,0.277,1.841
				c-0.102,0.637,6.227,13.628,5.805,13.98c0,0-3.108,2.575-3.19,2.636l-1.651,1.241
				C128.305,614.57,127.178,614.226,126.614,613.133"/>
			<path id="path28" d="M149.373,632.91l0.37-4.616c0.214-0.021,21.324-2.503,32.453-29.653
				c15.078-36.773,48.783-56.59,128.83-75.691l1.087,4.738c-0.103,0.032-9.817,3.083-46.588,21.751
				c-7.97,4.051-24.781,16.745-31.645,22.018c-9.476,7.271-17.405,16.979-25.088,26.37c-5.591,6.852-10.873,13.325-16.36,18.309
				C164.83,641.249,149.99,633.265,149.373,632.91"/>
			<path id="path30" d="M22.21,506.065H5.142c-2.38,0-4.273,0.841-5.671,2.523c-1.329,1.579-1.995,3.57-1.995,5.989V535.6
				c0,3.293,0.646,5.559,1.944,6.802c1.292,1.245,3.605,1.866,6.93,1.866h15.863v-8.207c0.108,0-0.913,0.078-3.051,0.227
				c-2.134,0.148-4.027,0.227-5.672,0.227c-5.263,0-7.888-0.719-7.888-2.162v-16.718c0-1.304,0.195-2.176,0.58-2.637
				c0.384-0.463,1.225-0.688,2.523-0.688h13.509v-8.245"/>
			<path id="path32" d="M41.262,514.784v2.092c0,1.005-0.63,1.497-1.893,1.497h-6c-0.948,0-1.42-0.461-1.42-1.395v-2.195
				c0-0.441,0.185-0.83,0.554-1.17c0.37-0.329,0.795-0.491,1.287-0.491h5.734C40.683,513.123,41.262,513.676,41.262,514.784z
				 M48.443,512.794c0-1.888-0.615-3.487-1.836-4.78c-1.225-1.291-2.784-1.948-4.672-1.948h-9.868c-2.17,0-3.887,0.533-5.145,1.579
				c-1.436,1.119-2.154,2.75-2.154,4.882v5.827c0,2.759,0.995,4.698,2.986,5.827c1.502,0.84,3.718,1.255,6.646,1.255
				c0.842,0,2.046-0.045,3.616-0.145c1.57-0.098,2.652-0.148,3.245-0.148c0.037,1.073-0.02,1.73-0.159,1.98
				c-0.246,0.462-0.842,0.692-1.79,0.692H24.769v6.894h16.396c4.852,0,7.277-2.242,7.277-6.725L48.443,512.794"/>
			<path id="path34" d="M87.272,527.826v-21.761h-7.18v19.241c0,1.509-0.974,2.263-2.918,2.263c-0.246,0-0.62-0.015-1.123-0.052
				c-0.502-0.036-0.861-0.055-1.067-0.055c-1.216,0-1.826-0.611-1.826-1.836v-19.561h-7.18v19.561c0,1.225-0.605,1.836-1.811,1.836
				c-0.205,0-0.555,0.02-1.036,0.055c-0.482,0.037-0.862,0.052-1.138,0.052c-1.965,0-2.949-0.755-2.949-2.263v-19.241h-7.18v21.761
				c0,2.066,0.584,3.729,1.754,4.99c1.169,1.262,2.785,1.893,4.846,1.893h5.498c2.76,0,4.626-0.848,5.605-2.539
				c0.908,1.691,2.775,2.539,5.605,2.539h5.498c2.062,0,3.677-0.63,4.848-1.893C86.687,531.555,87.272,529.892,87.272,527.826"/>
			<path id="path36" d="M108.021,515.07v10.904c0,0.389-0.17,0.73-0.497,1.027c-0.339,0.298-0.713,0.446-1.134,0.446h-5.631
				c-0.559,0-1.041-0.213-1.446-0.631c-0.405-0.42-0.605-0.923-0.605-1.517v-9.755c0-1.477,0.753-2.214,2.261-2.214h5.472
				c0.385,0,0.745,0.194,1.084,0.584C107.853,514.292,108.021,514.682,108.021,515.07z M115.201,512.538
				c0-4.441-3.517-6.677-10.559-6.677c-0.805,0-1.887,0.041-3.256,0.102c-1.364,0.073-2.257,0.102-2.677,0.102v-10.709
				c-0.98,0.145-3.37,0.145-7.18,0v31.737c0,2.241,0.507,4.025,1.523,5.352c1.118,1.509,2.764,2.263,4.934,2.263h10.287
				c2.279,0,4.002-0.657,5.17-1.971c1.174-1.312,1.759-3.092,1.759-5.334V512.538"/>
			<path id="path38" d="M184.216,448.297h-22.188c-3.097,0-5.554,1.097-7.374,3.283c-1.727,2.052-2.595,4.645-2.595,7.785v27.315
				c0,4.277,0.841,7.22,2.528,8.841c1.682,1.62,4.688,2.421,9.011,2.421h20.617v-10.669c0.138,0-1.185,0.103-3.959,0.288
				c-2.775,0.195-5.237,0.288-7.37,0.288c-6.83,0-10.241-0.923-10.241-2.791v-21.746c0-1.68,0.252-2.82,0.748-3.416
				c0.502-0.584,1.595-0.891,3.277-0.891h17.545v-10.708"/>
			<path id="path40" d="M224.859,472.75v4.616c0,2.236-1.395,3.345-4.166,3.345h-13.155c-2.077,0-3.118-1.036-3.118-3.109v-4.852
				c0-0.995,0.405-1.866,1.209-2.584c0.812-0.739,1.755-1.108,2.832-1.108h12.58C223.587,469.058,224.859,470.289,224.859,472.75
				L224.859,472.75z M240.697,468.34c0-4.166-1.354-7.662-4.052-10.514c-2.698-2.852-6.125-4.277-10.277-4.277h-21.727
				c-4.773,0-8.548,1.159-11.318,3.477c-3.159,2.461-4.739,6.041-4.739,10.748v12.832c0,6.092,2.191,10.38,6.566,12.841
				c3.297,1.848,8.17,2.771,14.62,2.771c1.841,0,4.493-0.093,7.945-0.287c3.452-0.186,5.83-0.289,7.145-0.289
				c0.07,2.299-0.041,3.713-0.348,4.259c-0.545,0.994-1.857,1.487-3.939,1.487h-31.988v15.099h36.091
				c10.677,0,16.022-4.924,16.022-14.771V468.34"/>
			<path id="path46" d="M311.061,492.7v-39.151h-12.966v34.587c0,2.709-1.754,4.062-5.252,4.062c-0.441,0-1.108-0.02-2.011-0.093
				c-0.913-0.061-1.558-0.091-1.928-0.091c-2.195,0-3.282-1.109-3.282-3.304v-35.161h-12.965v35.161
				c0,2.195-1.088,3.304-3.263,3.304c-0.37,0-0.984,0.03-1.856,0.091c-0.873,0.073-1.548,0.093-2.052,0.093
				c-3.538,0-5.302-1.354-5.302-4.062v-34.587h-12.966V492.7c0,3.724,1.057,6.72,3.16,8.975c2.113,2.278,5.026,3.407,8.739,3.407
				h9.918c4.974,0,8.339-1.519,10.103-4.546c1.642,3.027,5.005,4.546,10.104,4.546h9.919c3.712,0,6.627-1.129,8.738-3.407
				C310.004,499.418,311.061,496.424,311.061,492.7"/>
			<path id="path48" d="M348.355,469.724v19.663c0,0.698-0.298,1.312-0.902,1.845c-0.595,0.534-1.273,0.8-2.032,0.8h-10.112
				c-1.015,0-1.877-0.369-2.605-1.129c-0.727-0.758-1.087-1.671-1.087-2.748v-17.58c0-2.646,1.355-3.98,4.062-3.98h9.848
				c0.686,0,1.333,0.348,1.927,1.046C348.058,468.34,348.355,469.026,348.355,469.724L348.355,469.724z M361.32,465.16
				c0-8.011-6.338-12.021-19.018-12.021c-1.445,0-3.404,0.072-5.866,0.205c-2.462,0.143-4.062,0.205-4.821,0.205v-19.284
				c-1.764,0.255-6.093,0.255-12.965,0v57.111c0,4.03,0.912,7.241,2.749,9.641c2.011,2.708,4.973,4.064,8.883,4.064h18.544
				c4.103,0,7.212-1.181,9.324-3.55c2.113-2.36,3.17-5.56,3.17-9.601V465.16"/>
			<path id="path50" d="M282.439,584.707c4.811-2.991,9.652-7.031,14.78-11.309c7.036-5.857,14.288-11.914,22.516-16.166
				c5.948-3.077,20.505-10.477,27.191-12.627c30.873-9.898,38.833-11.22,38.905-11.227l-0.359-3.363
				c-64.928,6.682-93.524,17.616-109.238,41.782c-11.621,17.841-28.494,17.837-28.658,17.832l-0.78,3.164
				C247.257,593.087,258.079,599.809,282.439,584.707"/>
			<path id="path52" d="M132.719,571.394l2.039-3.267c-0.095-0.064-9.07-6.809-1.393-28.16c10.4-28.92,3.681-50.604-25.7-82.842
				l-2.8,3.002c0.033,0.046,3.249,4.463,11.993,26.085c1.895,4.691,3.895,17.443,4.667,22.711
				c1.077,7.266,0.231,15.841-0.575,24.142c-0.6,6.052-1.166,11.768-0.915,16.509C121.269,573.453,132.251,571.492,132.719,571.394"
				/>
			<path id="path54" d="M167.551,566.526l1.016-1.212c0.048-0.062,1.902-2.505,1.902-2.505c0.255-0.335,0.364-0.77,0.319-1.22
				c-0.052-0.438-0.259-0.859-0.572-1.163c-18.038-16.754-59.455-23.02-64.144-17.237c-0.26,0.321-0.4,0.761-0.356,1.207
				c0.011,0.147,0.043,0.293,0.094,0.432c0.093,0.284,0.241,0.534,0.45,0.741l1.949,1.934c0.258,0.78,0.809,2.089,1.792,2.791
				l2.005,0.434c2.155-0.234,38.328,1.834,53.434,15.88C166.091,567.196,167.012,567.168,167.551,566.526"/>
			<path id="path56" d="M169.759,544.905c4.359,0,6.541-0.514,6.541-1.542c0-1.176-0.98-1.807-2.935-1.895
				c-2.366-0.145-4.571-0.819-6.615-2.02c-2.045-1.202-3.861-2.843-5.453-4.923c-1.592-2.08-2.833-4.424-3.723-7.032
				c-0.891-2.607-1.337-5.362-1.337-8.262c0-3.193,0.745-5.764,2.234-7.713c1.488-1.95,3.429-2.923,5.823-2.923
				c2.219,0,4.159,1.142,5.823,3.427c1.663,2.287,2.495,4.952,2.495,7.999c0,2.491-0.519,4.827-1.558,7.009
				c-1.039,2.183-2.554,4.022-4.543,5.516c-0.85,0.674-1.274,1.157-1.274,1.45c0,0.41,0.6,1.041,1.802,1.891
				c1.347,0.908,2.855,1.67,4.523,2.284c1.67,0.616,3.075,0.923,4.217,0.923c1.318,0,2.57-0.345,3.755-1.034
				c1.186-0.688,2.234-1.67,3.141-2.945c0.908-1.273,1.603-2.739,2.087-4.393c0.482-1.655,0.724-3.42,0.724-5.295
				c0-3.105-0.586-6.173-1.757-9.205c-1.171-3.032-2.708-5.485-4.61-7.36c-2.459-2.373-5.423-4.314-8.891-5.821
				c-3.468-1.509-6.77-2.263-9.902-2.263c-3.045,0-6.066,0.528-9.066,1.582c-3,1.055-5.38,2.446-7.134,4.176
				c-2.342,2.345-3.513,5.67-3.513,9.977c0,3.398,0.834,6.797,2.502,10.195s3.927,6.482,6.78,9.252
				c2.855,2.768,5.999,4.951,9.439,6.548C162.772,544.106,166.248,544.905,169.759,544.905"/>
			<path id="path58" d="M354.482,433.718c-1.178,0-1.766,0.396-1.766,1.191c0,0.245,0.066,0.623,0.197,1.13
				c0.13,0.509,0.268,0.917,0.413,1.228c0.391,0.898,0.752,1.483,1.079,1.755c0.38,0.337,0.945,0.637,1.698,0.898
				c0.752,0.26,1.416,0.389,1.991,0.389c0.811,0,1.216-0.467,1.216-1.405c0-0.884-0.255-1.963-0.766-3.238
				c-0.13-0.363-0.284-0.633-0.461-0.809c-0.176-0.177-0.466-0.341-0.873-0.498C356.098,433.932,355.189,433.718,354.482,433.718"/>
			<path id="path60" d="M373.798,453.374c1.94,0,2.909-0.23,2.909-0.688c0-0.523-0.434-0.805-1.307-0.844
				c-1.054-0.066-2.036-0.367-2.946-0.902c-0.912-0.534-1.72-1.266-2.43-2.195c-0.709-0.928-1.263-1.973-1.659-3.136
				c-0.398-1.162-0.595-2.39-0.595-3.683c0-1.424,0.332-2.571,0.998-3.439c0.665-0.868,1.53-1.303,2.601-1.303
				c0.991,0,1.857,0.511,2.599,1.532c0.744,1.02,1.115,2.212,1.115,3.573c0,1.112-0.23,2.155-0.693,3.13s-1.138,1.797-2.021,2.465
				c-0.378,0.3-0.566,0.516-0.566,0.648c0,0.184,0.266,0.464,0.801,0.845c0.598,0.404,1.268,0.745,2.01,1.02
				c0.741,0.277,1.366,0.413,1.875,0.413c0.586,0,1.141-0.153,1.67-0.461c0.527-0.307,0.993-0.745,1.395-1.313
				c0.404-0.568,0.713-1.222,0.928-1.959c0.215-0.738,0.322-1.527,0.322-2.363c0-1.384-0.261-2.754-0.781-4.108
				c-0.522-1.351-1.205-2.447-2.052-3.283c-1.095-1.059-2.413-1.924-3.957-2.598c-1.545-0.67-3.013-1.008-4.405-1.008
				c-1.355,0-2.702,0.235-4.034,0.704c-1.337,0.47-2.395,1.09-3.177,1.861c-1.041,1.043-1.562,2.525-1.562,4.443
				c0,1.514,0.372,3.028,1.114,4.542c0.741,1.515,1.747,2.888,3.016,4.123c1.27,1.232,2.67,2.205,4.199,2.916
				C370.691,453.017,372.237,453.374,373.798,453.374"/>
			<path id="path62" d="M388.498,439.661l-0.077-0.391c0-0.22-0.025-0.54-0.076-0.956c-0.053-0.637-0.124-1.157-0.216-1.561
				c-0.091-0.403-0.227-0.738-0.411-1.005c-0.182-0.267-0.43-0.55-0.743-0.849c-0.951-0.872-1.909-1.307-2.873-1.307
				c-0.782,0-1.359,0.286-1.731,0.858c-0.372,0.573-0.556,1.498-0.556,2.773c0,1.016,0.113,2.269,0.341,3.759
				c0.227,1.491,0.503,2.828,0.828,4.013l0.155,0.508c0,0.078,0.039,0.241,0.117,0.488c0.48,1.772,0.922,3.082,1.326,3.936
				c0.403,0.851,0.891,1.539,1.462,2.059c0.505,0.404,1.078,0.606,1.716,0.606c0.923,0,1.483-0.56,1.678-1.68
				c0.183,0.155,0.358,0.339,0.527,0.548c0.379,0.455,0.672,0.759,0.88,0.908c0.209,0.149,0.448,0.225,0.723,0.225
				c1.121,0,1.68-1.108,1.68-3.322c0-1.212-0.13-2.384-0.391-3.517c-0.262-1.133-0.592-2.058-0.991-2.773
				c-0.4-0.716-0.795-1.075-1.188-1.075c-0.432,0-0.648,0.814-0.648,2.441c0,0.856-0.048,1.53-0.144,2.02
				c-0.096,0.487-0.246,0.868-0.45,1.141c-0.384-0.729-0.634-2.395-0.748-4.995C388.601,441.001,388.537,440.053,388.498,439.661"/>
			<path id="path64" d="M408.844,443.233v-0.078l-0.077,0.078c-0.077-0.027-0.182-0.039-0.312-0.039
				c-0.245-0.027-0.555-0.039-0.931-0.039c-0.662,0-0.991,0.123-0.991,0.372c0,0.13,0.084,0.286,0.254,0.47
				c0.494,0.562,0.92,1.298,1.279,2.209c0.357,0.913,0.556,1.741,0.596,2.484c0,0.182,0.013,0.345,0.039,0.488
				c0.012,0.052,0.022,0.098,0.029,0.137c0.006,0.038,0.01,0.073,0.01,0.098c0,0.184-0.124,0.274-0.371,0.274
				c-0.51,0-1.292-0.547-2.349-1.643c-0.665-0.705-1.291-1.539-1.877-2.505c-0.587-0.966-1.045-1.93-1.37-2.895
				c-0.327-0.966-0.489-1.834-0.489-2.602c0-0.757,0.188-1.135,0.566-1.135c0.363,0,1.281,0.613,2.754,1.841
				C406.266,441.319,407.347,442.149,408.844,443.233L408.844,443.233z M407.876,439.054l-0.527-0.391
				c-0.039-0.038-0.102-0.091-0.186-0.155c-0.085-0.066-0.193-0.15-0.323-0.255c-2.255-1.759-4.023-2.995-5.309-3.711
				c-1.284-0.716-2.403-1.073-3.354-1.073c-1.055,0-1.906,0.383-2.552,1.153c-0.645,0.769-0.967,1.798-0.967,3.087
				c0,1.603,0.453,3.262,1.357,4.974c0.905,1.715,2.101,3.289,3.586,4.722c1.484,1.434,3.112,2.583,4.885,3.45
				c1.77,0.867,3.484,1.3,5.137,1.3c1.628,0,2.87-0.28,3.723-0.841c0.853-0.562,1.279-1.402,1.279-2.523
				c0-0.94-0.371-2.098-1.113-3.48c0.534-0.039,0.927-0.206,1.177-0.499s0.375-0.752,0.375-1.377c0-1.016-0.209-2.434-0.627-4.252
				c-0.416-1.816-0.925-3.494-1.523-5.029c-0.73-1.938-1.773-3.624-3.129-5.055c-1.03-1.081-2.309-2.007-3.834-2.782
				c-1.526-0.775-2.835-1.163-3.93-1.163c-0.913,0-1.728,0.365-2.445,1.093c-0.717,0.728-1.076,1.549-1.076,2.459
				c0,0.611,0.157,1.246,0.469,1.902c0.313,0.659,0.717,1.221,1.213,1.691c1.017,1.027,2.509,2.002,4.477,2.927
				c0.365,0.183,0.645,0.273,0.841,0.273c0.079,0,0.15-0.032,0.215-0.098c0.065-0.065,0.098-0.136,0.098-0.215
				c0-0.09-0.077-0.266-0.234-0.528c-0.391-0.664-0.738-1.514-1.036-2.55c-0.299-1.035-0.449-1.93-0.449-2.686
				c0-0.888,0.138-1.329,0.413-1.329c0.143,0,0.323,0.159,0.538,0.478c0.216,0.32,0.409,0.68,0.578,1.084
				c1.111,2.816,1.824,5.42,2.138,7.817C407.799,437.823,407.837,438.35,407.876,439.054"/>
		</g>
	</g>
</g>
</svg>
