<?xml version="1.0" encoding="utf-8"?>
<!-- Generator: Adobe Illustrator 16.0.0, SVG Export Plug-In . SVG Version: 6.00 Build 0)  -->
<!DOCTYPE svg PUBLIC "-//W3C//DTD SVG 1.1//EN" "http://www.w3.org/Graphics/SVG/1.1/DTD/svg11.dtd">
<svg version="1.1"
	 id="svg2" xmlns:dc="http://purl.org/dc/elements/1.1/" xmlns:cc="http://creativecommons.org/ns#" xmlns:rdf="http://www.w3.org/1999/02/22-rdf-syntax-ns#" xmlns:svg="http://www.w3.org/2000/svg" xmlns:sodipodi="http://sodipodi.sourceforge.net/DTD/sodipodi-0.dtd" xmlns:inkscape="http://www.inkscape.org/namespaces/inkscape" inkscape:version="0.48.2 r9819" sodipodi:docname="logo_c2c.svg"
	 xmlns="http://www.w3.org/2000/svg" xmlns:xlink="http://www.w3.org/1999/xlink" x="0px" y="0px" width="412.86px"
	 height="412.859px" viewBox="0 0 412.86 412.859" enable-background="new 0 0 412.86 412.859" xml:space="preserve">
<g id="g12" transform="matrix(1.25,0,0,-1.25,0,1052.5)" inkscape:label="ink_ext_XXXXXX" inkscape:groupmode="layer">
	<g id="g2936" transform="translate(2.5228132,103.43534)">
		<g id="g3028">
			<path id="path24" d="M181.892,577.856l1.312-0.88c0.062-0.048,2.522-1.878,2.522-1.878c0.337-0.252,0.566-0.636,0.647-1.083
				c0.073-0.435-0.011-0.898-0.225-1.277c-12.658-21.115-50.691-38.67-56.803-34.423c-0.339,0.236-0.597,0.62-0.678,1.061
				c-0.03,0.144-0.041,0.293-0.03,0.441c0.009,0.298,0.081,0.58,0.225,0.838l1.334,2.399c0.03,0.82,0.194,2.231,0.944,3.18
				l1.805,0.975c2.134,0.375,36.302,12.437,46.897,30.135C180.301,578.092,181.193,578.322,181.892,577.856"/>
			<path id="path26" d="M68.551,607.883c-13.305-25.703-62.98-56.306-65.656-56.895l-2.267-1.437
				c-0.954-1.38-1.159-3.414-1.191-4.594l-1.671-3.493c-0.185-0.364-0.277-0.784-0.288-1.206c-0.009-0.216,0.011-0.43,0.052-0.641
				c0.113-0.625,0.421-1.162,0.852-1.502c7.724-5.964,55.625,20.181,71.503,50.855c0.277,0.548,0.38,1.205,0.277,1.841
				c-0.102,0.636,6.226,13.627,5.805,13.98c0,0-3.108,2.575-3.191,2.636l-1.65,1.241C70.242,609.32,69.115,608.976,68.551,607.883"
				/>
			<path id="path28" d="M91.31,627.66l0.369-4.616c0.214-0.021,21.325-2.503,32.453-29.653
				c15.078-36.773,48.783-56.59,128.83-75.691l1.087,4.738c-0.103,0.032-9.817,3.083-46.587,21.751
				c-7.97,4.051-24.781,16.745-31.645,22.018c-9.477,7.271-17.405,16.979-25.087,26.37c-5.592,6.852-10.873,13.324-16.361,18.309
				C106.767,635.999,91.926,628.014,91.31,627.66"/>
			<path id="path50" d="M224.376,579.457c4.811-2.991,9.652-7.031,14.78-11.309c7.036-5.857,14.288-11.914,22.516-16.166
				c5.947-3.077,20.505-10.477,27.191-12.627c30.873-9.898,38.833-11.22,38.905-11.227l-0.359-3.363
				c-64.928,6.682-93.523,17.616-109.238,41.782c-11.622,17.841-28.494,17.837-28.658,17.832l-0.78,3.164
				C189.193,587.836,200.015,594.559,224.376,579.457"/>
		</g>
	</g>
</g>
</svg>
