<?xml version="1.0" encoding="utf-8"?>
<!-- Generator: Adobe Illustrator 16.0.0, SVG Export Plug-In . SVG Version: 6.00 Build 0)  -->
<!DOCTYPE svg PUBLIC "-//W3C//DTD SVG 1.1//EN" "http://www.w3.org/Graphics/SVG/1.1/DTD/svg11.dtd">
<svg version="1.1"
	 id="svg2" xmlns:dc="http://purl.org/dc/elements/1.1/" xmlns:cc="http://creativecommons.org/ns#" xmlns:rdf="http://www.w3.org/1999/02/22-rdf-syntax-ns#" xmlns:svg="http://www.w3.org/2000/svg" xmlns:sodipodi="http://sodipodi.sourceforge.net/DTD/sodipodi-0.dtd" xmlns:inkscape="http://www.inkscape.org/namespaces/inkscape" sodipodi:docname="mountain_climbing.svg" inkscape:version="0.48.2 r9819" inkscape:export-filename="/home/tai/svgc2c/mountain_climbing_big.png" inkscape:export-ydpi="7.0300002" inkscape:export-xdpi="7.0300002"
	 xmlns="http://www.w3.org/2000/svg" xmlns:xlink="http://www.w3.org/1999/xlink" x="0px" y="0px" width="320px" height="320px"
	 viewBox="0 0 320 320" enable-background="new 0 0 320 320" xml:space="preserve">
<g id="layer1" transform="translate(0,-732.36218)" inkscape:label="Calque 1" inkscape:groupmode="layer">
	
		<path id="path2996" sodipodi:type="arc" sodipodi:cx="211.42857" sodipodi:cy="-2.1428576" sodipodi:rx="23.571428" sodipodi:ry="23.571428" opacity="0.99" fill="#545455" enable-background="new    " d="
		M247.285,785.791c0.007,14.912-12.076,27.005-26.988,27.011c-14.91,0.006-27.005-12.077-27.012-26.988c0-0.008,0-0.015,0-0.023
		c-0.006-14.912,12.076-27.005,26.988-27.012c14.912-0.006,27.006,12.077,27.012,26.988
		C247.285,785.775,247.285,785.783,247.285,785.791z"/>
	
		<path id="rect3766" inkscape:connector-curvature="0" sodipodi:nodetypes="ccccccc" opacity="0.2" fill="#545455" enable-background="new    " d="
		M0,732.362h12.598l105.831,100.714l48.196,192.71l17.805,26.575H0V732.362z"/>
	<path id="rect3769" fill="#545455" d="M221.98,820.621L221.98,820.621c15.701-4.801,32.321,4.037,37.123,19.738l20.623,67.458
		c4.801,15.701-4.037,32.322-19.738,37.123l0,0c-15.701,4.801-32.321-4.037-37.122-19.738l-20.624-67.458
		C197.441,842.042,206.279,825.421,221.98,820.621z"/>
	<path id="rect3771" fill="#545455" d="M270.605,804.559L270.605,804.559c9.431-2.883,19.492,2.683,22.474,12.433l18.567,60.73
		c2.979,9.75-2.249,19.992-11.681,22.875l0,0c-9.432,2.885-19.493-2.683-22.475-12.433l-18.566-60.73
		C255.943,817.684,261.174,807.442,270.605,804.559z"/>
	<path id="rect3773" fill="#545455" d="M239.953,930.251L239.953,930.251c2.461-0.523,4.953,1.398,5.568,4.293l25.543,120.172
		c0.615,2.896-0.881,5.664-3.34,6.188l0,0c-2.461,0.522-4.953-1.4-5.568-4.294l-25.543-120.173
		C235.998,933.543,237.494,930.772,239.953,930.251z"/>
	<path id="rect3775" fill="#545455" d="M219.971,845.439L219.971,845.439c3.459,5.327-0.441,13.999-8.713,19.37l-51.519,33.458
		c-8.271,5.371-17.78,5.406-21.24,0.08l0,0c-3.459-5.326,0.442-14,8.713-19.371l51.519-33.456
		C207.002,840.149,216.512,840.113,219.971,845.439z"/>
	<path id="rect3777" fill="#545455" d="M226.051,842.657L226.051,842.657c0.883,6.29-6.316,12.501-16.084,13.874l-60.83,8.549
		c-9.766,1.373-18.4-2.613-19.284-8.903l0,0c-0.884-6.29,6.316-12.501,16.083-13.874l60.832-8.549
		C216.533,832.382,225.166,836.368,226.051,842.657z"/>
	<path id="rect3779" fill="#545455" d="M262.354,914.244L262.354,914.244c5.857,5.858,4.953,16.26-2.021,23.233l-43.437,43.437
		c-6.975,6.974-17.375,7.878-23.233,2.021l0,0c-5.858-5.856-4.954-16.26,2.021-23.232l43.437-43.438
		C246.094,909.29,256.496,908.386,262.354,914.244z"/>
	<path id="rect3793" fill="#545455" d="M208.29,959.571l1.589,0.643c7.242,2.926,10.741,11.17,7.814,18.412l-18.226,45.109
		c-2.927,7.242-11.17,10.742-18.411,7.814l-1.59-0.642c-7.242-2.927-10.74-11.17-7.814-18.412l18.227-45.108
		C192.805,960.143,201.048,956.645,208.29,959.571z"/>
</g>
</svg>
