<?xml version="1.0" encoding="utf-8"?>
<!-- Generator: Adobe Illustrator 16.0.0, SVG Export Plug-In . SVG Version: 6.00 Build 0)  -->
<!DOCTYPE svg PUBLIC "-//W3C//DTD SVG 1.1//EN" "http://www.w3.org/Graphics/SVG/1.1/DTD/svg11.dtd">
<svg version="1.1"
	 id="svg2985" xmlns:dc="http://purl.org/dc/elements/1.1/" xmlns:cc="http://creativecommons.org/ns#" xmlns:rdf="http://www.w3.org/1999/02/22-rdf-syntax-ns#" xmlns:svg="http://www.w3.org/2000/svg" xmlns:sodipodi="http://sodipodi.sourceforge.net/DTD/sodipodi-0.dtd" xmlns:inkscape="http://www.inkscape.org/namespaces/inkscape" inkscape:export-xdpi="4.5" inkscape:export-ydpi="4.5" inkscape:export-filename="C:\Users\meije\Desktop\parapente.png" inkscape:version="0.48.2 r9819" sodipodi:docname="paragliding.svg"
	 xmlns="http://www.w3.org/2000/svg" xmlns:xlink="http://www.w3.org/1999/xlink" x="0px" y="0px" width="320px" height="320px"
	 viewBox="0 0 320 320" enable-background="new 0 0 320 320" xml:space="preserve">
<path id="path2995" sodipodi:nodetypes="sscsssssssssssszs" inkscape:connector-curvature="0" fill="#545455" d="M5.953,101.707
	C2.679,98.698,0,91.359,0,85.399C0,72.9,13.133,45.971,41.388,27.383C87.57,0.021,129.007-3.419,170.477,2.409
	c40.85,5.741,62.847,13.081,91.899,30.665c38.176,23.105,57.406,52.575,57.621,88.305c0.146,24.064-5.429,34.124-25.552,46.114
	c-21.978,13.096-46.76,12.987-60.506-0.263c-6.158-5.938-12.912-19.494-17.775-35.681c-9.158-30.473-25.535-56.127-49.787-75.993
	c-18.57-15.212-47.498-28.978-59.771-32.042c-13.891-3.469-28.14,6.126-26.015,5.692c12.303-2.511,40.509,13.276,50.775,19.316
	c6.92,4.071,9.389,4.595-3.509,8.396c-4.421,1.303-22.728,9.673-38.89,18.607C78.935,81.07,61.109,91.398,49.462,99.894
	C37.815,108.389,13.932,109.039,5.953,101.707z"/>
<path id="path2996" sodipodi:ry="23.571428" sodipodi:rx="23.571428" sodipodi:cy="-2.1428576" sodipodi:cx="211.42857" sodipodi:type="arc" inkscape:export-xdpi="4" inkscape:export-ydpi="4" fill="#545455" d="
	M143.246,165.434c-5.624,7.404-16.184,8.849-23.588,3.225c-7.404-5.623-8.847-16.184-3.224-23.588
	c0.003-0.004,0.006-0.007,0.009-0.011c5.624-7.404,16.184-8.847,23.588-3.224c7.404,5.624,8.847,16.184,3.224,23.588
	C143.252,165.426,143.249,165.43,143.246,165.434z"/>
<path id="rect3769" fill="#545455" d="M124.941,172.54L124.941,172.54c9.13,3.721,13.803,14.916,10.436,25.006l-14.466,43.349
	c-3.367,10.09-13.498,15.254-22.629,11.532l0,0c-9.131-3.721-13.803-14.917-10.436-25.006l14.465-43.349
	C105.679,173.982,115.81,168.818,124.941,172.54z"/>
<path id="rect3769-1" fill="#545455" d="M93.628,219.342L93.628,219.342c6.695-5.046,17.407-3.516,23.926,3.418l28.008,29.787
	c6.519,6.934,6.376,16.646-0.319,21.691l0,0c-6.695,5.047-17.407,3.517-23.926-3.417L93.31,241.033
	C86.791,234.1,86.934,224.389,93.628,219.342z"/>
<path id="rect3769-1-7" fill="#545455" d="M144.354,256.941L144.354,256.941c6.165,3.826,8.278,12.949,4.72,20.377l-15.288,31.914
	c-3.558,7.428-11.44,10.348-17.605,6.521l0,0c-6.165-3.825-8.278-12.948-4.719-20.378l15.287-31.913
	C130.308,256.035,138.19,253.115,144.354,256.941z"/>
<path id="path3830" sodipodi:nodetypes="sssss" inkscape:connector-curvature="0" fill="#545455" d="M122.392,207
	c0,18.572,12.02,59.682-4.544,59.682s-36.657-11.421-35.445-38.475c0.831-18.555,12.886-53.984,29.386-55.439
	C118.658,172.161,122.392,188.428,122.392,207z"/>
</svg>
