<?xml version="1.0" encoding="utf-8"?>
<!-- Generator: Adobe Illustrator 16.0.0, SVG Export Plug-In . SVG Version: 6.00 Build 0)  -->
<!DOCTYPE svg PUBLIC "-//W3C//DTD SVG 1.1//EN" "http://www.w3.org/Graphics/SVG/1.1/DTD/svg11.dtd">
<svg version="1.1"
	 id="svg2" xmlns:dc="http://purl.org/dc/elements/1.1/" xmlns:cc="http://creativecommons.org/ns#" xmlns:rdf="http://www.w3.org/1999/02/22-rdf-syntax-ns#" xmlns:svg="http://www.w3.org/2000/svg" xmlns:sodipodi="http://sodipodi.sourceforge.net/DTD/sodipodi-0.dtd" xmlns:inkscape="http://www.inkscape.org/namespaces/inkscape" sodipodi:docname="rock_climbing.svg" inkscape:version="0.48.2 r9819" inkscape:export-filename="/home/tai/svgc2c/rock_climbing.png" inkscape:export-ydpi="4.5" inkscape:export-xdpi="4.5"
	 xmlns="http://www.w3.org/2000/svg" xmlns:xlink="http://www.w3.org/1999/xlink" x="0px" y="0px" width="320px" height="320px"
	 viewBox="0 0 320 320" enable-background="new 0 0 320 320" xml:space="preserve">
<g id="layer1" transform="translate(0,-732.36218)" inkscape:label="Calque 1" inkscape:groupmode="layer">
	
		<path id="path2996" sodipodi:type="arc" sodipodi:cx="211.42857" sodipodi:cy="-2.1428576" sodipodi:rx="23.571428" sodipodi:ry="23.571428" fill="#545455" d="
		M296.662,873.569c-7.143,10.392-20.557,12.417-29.959,4.525c-9.404-7.893-11.237-22.714-4.096-33.106
		c0.004-0.005,0.008-0.01,0.012-0.016c7.143-10.392,20.555-12.417,29.959-4.525c9.403,7.893,11.236,22.714,4.095,33.106
		C296.669,873.558,296.665,873.564,296.662,873.569z"/>
	<path id="rect3769" fill="#545455" d="M260.018,880.432L260.018,880.432c12.199,4.971,18.441,19.929,13.943,33.409l-19.328,57.916
		c-4.498,13.48-18.033,20.379-30.232,15.408l0,0c-12.198-4.972-18.441-19.929-13.942-33.408l19.326-57.916
		C234.281,882.359,247.818,875.461,260.018,880.432z"/>
	<path id="rect3775" fill="#545455" d="M246.855,896.657L246.855,896.657c-0.371,5.542-6.986,9.518-14.775,8.88l-48.512-3.976
		c-7.789-0.64-13.801-5.649-13.428-11.192l0,0c0.371-5.542,6.985-9.518,14.774-8.88l48.512,3.976
		C241.216,886.103,247.229,891.114,246.855,896.657z"/>
	<path id="rect3777" fill="#545455" d="M199.699,1061.591L199.699,1061.591c-3.473-1.662-4.779-9.921-2.92-18.445l11.592-53.096
		c1.861-8.522,6.186-14.087,9.658-12.424l0,0c3.473,1.662,4.779,9.92,2.918,18.443l-11.592,53.096
		C207.496,1057.688,203.172,1063.253,199.699,1061.591z"/>
	<path id="rect3779" fill="#545455" d="M240.602,967.034L240.602,967.034c0.885,7.184-4.67,13.949-12.408,15.115l-48.198,7.256
		c-7.738,1.165-14.729-3.713-15.615-10.896l0,0c-0.885-7.183,4.67-13.949,12.408-15.115l48.198-7.256
		C232.725,954.972,239.716,959.85,240.602,967.034z"/>
	<path id="rect3793" fill="#545455" d="M184.531,969.486l1.225,2.274c3.018,5.603,1.153,12.977-4.162,16.473l-33.108,21.773
		c-5.315,3.495-12.07,1.788-15.086-3.812l-1.226-2.275c-3.017-5.602-1.153-12.976,4.163-16.472l33.106-21.772
		C174.76,962.179,181.514,963.886,184.531,969.486z"/>
	
		<path id="rect3831" inkscape:connector-curvature="0" sodipodi:nodetypes="cczzzccc" opacity="0.2" fill="#545455" enable-background="new    " d="
		M0,732.362h167.143c0,0,10.353,32.157,12.731,54.871c2.379,22.714,1.819,62.524-1.552,80.688
		c-3.372,18.164-55.279,111.942-60.481,129.751c-5.201,17.81-3.731,54.689-3.731,54.689H0V732.362z"/>
	<path id="rect3777-7" fill="#545455" d="M251.045,898.056L251.045,898.056c-2.385,4.709-9.682,5.207-16.299,1.114l-41.209-25.494
		c-6.616-4.093-10.046-11.228-7.66-15.937l0,0c2.385-4.708,9.682-5.207,16.299-1.114l41.209,25.495
		C250.001,886.213,253.432,893.349,251.045,898.056z"/>
</g>
</svg>
