<?xml version="1.0" encoding="utf-8"?>
<!-- Generator: Adobe Illustrator 16.0.0, SVG Export Plug-In . SVG Version: 6.00 Build 0)  -->
<!DOCTYPE svg PUBLIC "-//W3C//DTD SVG 1.1//EN" "http://www.w3.org/Graphics/SVG/1.1/DTD/svg11.dtd">
<svg version="1.1"
	 id="svg2" xmlns:dc="http://purl.org/dc/elements/1.1/" xmlns:cc="http://creativecommons.org/ns#" xmlns:rdf="http://www.w3.org/1999/02/22-rdf-syntax-ns#" xmlns:svg="http://www.w3.org/2000/svg" xmlns:sodipodi="http://sodipodi.sourceforge.net/DTD/sodipodi-0.dtd" xmlns:inkscape="http://www.inkscape.org/namespaces/inkscape" sodipodi:docname="snow_ice_mixed.svg" inkscape:version="0.48.3.1 r9886" inkscape:export-filename="/home/tai/svgc2c/snow_ice_mixed_mini.png" inkscape:export-ydpi="4.5" inkscape:export-xdpi="4.5"
	 xmlns="http://www.w3.org/2000/svg" xmlns:xlink="http://www.w3.org/1999/xlink" x="0px" y="0px" width="320px" height="320px"
	 viewBox="0 0 320 320" enable-background="new 0 0 320 320" xml:space="preserve">
<g id="layer1" transform="translate(0,-732.36218)" inkscape:label="Calque 1" inkscape:groupmode="layer">
	
		<path id="path2996" sodipodi:type="arc" sodipodi:cx="211.42857" sodipodi:cy="-2.1428576" sodipodi:rx="23.571428" sodipodi:ry="23.571428" opacity="0.99" enable-background="new    " d="
		M195.857,759.362c0.006,13.334-10.799,24.147-24.133,24.153c-13.333,0.005-24.147-10.799-24.154-24.133c0-0.007,0-0.014,0-0.021
		c-0.005-13.334,10.799-24.147,24.133-24.153c13.333-0.005,24.147,10.799,24.153,24.133
		C195.857,759.349,195.857,759.355,195.857,759.362z"/>
	
		<path id="rect3766" inkscape:connector-curvature="0" sodipodi:nodetypes="cccccccc" opacity="0.2" enable-background="new    " d="
		M0,873.516l70.593,22.28l53.428,78.766l66.833,42.516l25.648-12.604l65.783,49.317L0,1052.362V873.516z"/>
	<path id="rect3769" d="M172.525,788.832L172.525,788.832c14.586-2.018,27.967,8.771,29.887,24.099l8.25,65.85
		c1.92,15.327-8.348,29.388-22.934,31.405l0,0c-14.584,2.02-27.965-8.771-29.887-24.098l-8.25-65.85
		C147.673,804.911,157.94,790.85,172.525,788.832z"/>
	<path id="rect3771" d="M221.113,775.571l6.098-0.568c10.469-0.976,20.123,6.675,21.562,17.091l8.969,64.873
		c1.439,10.415-5.879,19.649-16.348,20.626l-6.098,0.568c-10.469,0.976-20.122-6.676-21.562-17.091l-8.969-64.873
		C203.326,785.782,210.646,776.547,221.113,775.571z"/>
	<path id="rect3779" d="M187.773,868.525L187.773,868.525c4.557,5.052,3.762,13.774-1.773,19.481l-34.483,35.547
		c-5.536,5.707-13.718,6.237-18.274,1.188l0,0c-4.556-5.053-3.762-13.775,1.774-19.482l34.483-35.547
		C175.035,864.004,183.217,863.474,187.773,868.525z"/>
	<path id="rect3793" d="M145.118,905.507l1.112,0.455c5.969,2.441,8.87,9.275,6.479,15.266l-14.893,37.306
		c-2.391,5.99-9.168,8.867-15.137,6.426l-1.112-0.454c-5.969-2.44-8.87-9.275-6.479-15.265l14.893-37.308
		C132.371,905.942,139.148,903.065,145.118,905.507z"/>
	<path id="rect3793-8" d="M80.558,800.918l0.473-0.11c3.295-0.768,6.63,1.271,7.449,4.554l27.749,111.301
		c0.818,3.283-1.189,6.566-4.485,7.335l-0.473,0.11c-3.295,0.768-6.63-1.271-7.449-4.555L76.073,808.253
		C75.255,804.97,77.263,801.686,80.558,800.918z"/>
	<path id="rect3779-5" d="M198.66,882.067L198.66,882.067c6.885,1.769,10.459,9.249,7.984,16.707l-15.41,46.453
		c-2.476,7.459-10.062,12.069-16.946,10.302l0,0c-6.884-1.769-10.46-9.249-7.985-16.707l15.412-46.454
		C184.189,884.91,191.775,880.298,198.66,882.067z"/>
	<path id="rect3793-84" d="M177.301,934.744l2.742,0.002c6.674,0.005,12.078,5.419,12.073,12.093l-0.034,41.569
		c-0.006,6.674-5.42,12.08-12.094,12.075l-2.742-0.002c-6.674-0.006-12.079-5.42-12.074-12.094l0.035-41.568
		C165.213,940.145,170.627,934.739,177.301,934.744z"/>
	<path id="rect3777-4" d="M139.007,831.355L139.007,831.355c0.071,5.758-4.54,10.418-10.298,10.409l-21.102-0.035
		c-5.758-0.01-10.484-4.686-10.555-10.443l0,0c-0.071-5.758,4.54-10.418,10.298-10.409l21.102,0.035
		C134.21,820.921,138.936,825.597,139.007,831.355z"/>
	<path id="path3887" inkscape:connector-curvature="0" sodipodi:nodetypes="csccscc" d="M40.77,825.718
		c21.291-20.733,30.226-19.27,40.671-22.945c7.983-2.809,30.149-3.828,30.149-3.828l1.424,12.465c0,0-19.959,0.77-25.649,1.81
		c-11.962,2.186-21.9,2.891-41.966,18.759C43.358,829.097,41.959,827.298,40.77,825.718z"/>
	<path id="rect3777-4-4" d="M166.684,820.438L166.684,820.438c1.76,5.483-2.149,11.548-8.737,13.547l-24.133,7.325
		c-6.586,1.999-13.353-0.826-15.114-6.309l0,0c-1.761-5.483,2.15-11.548,8.736-13.547l24.133-7.325
		C158.155,812.131,164.922,814.955,166.684,820.438z"/>
</g>
</svg>
