<?xml version="1.0" encoding="utf-8"?>
<!-- Generator: Adobe Illustrator 16.0.0, SVG Export Plug-In . SVG Version: 6.00 Build 0)  -->
<!DOCTYPE svg PUBLIC "-//W3C//DTD SVG 1.1//EN" "http://www.w3.org/Graphics/SVG/1.1/DTD/svg11.dtd">
<svg version="1.1"
	 id="svg2466" xmlns:dc="http://purl.org/dc/elements/1.1/" xmlns:cc="http://creativecommons.org/ns#" xmlns:rdf="http://www.w3.org/1999/02/22-rdf-syntax-ns#" xmlns:svg="http://www.w3.org/2000/svg" xmlns:sodipodi="http://sodipodi.sourceforge.net/DTD/sodipodi-0.dtd" xmlns:inkscape="http://www.inkscape.org/namespaces/inkscape" inkscape:output_extension="org.inkscape.output.svg.inkscape" sodipodi:version="0.32" inkscape:export-xdpi="17.98" inkscape:export-ydpi="17.98" inkscape:export-filename="/home/meije/Desktop/snowshoeing16.png" inkscape:version="0.46" sodipodi:docname="snowshoeing-light.svg"
	 xmlns="http://www.w3.org/2000/svg" xmlns:xlink="http://www.w3.org/1999/xlink" x="0px" y="0px" width="80px" height="80px"
	 viewBox="0 0 80 80" enable-background="new 0 0 80 80" xml:space="preserve">
<g id="g3982" transform="matrix(0.9753191,0,0,0.9763025,5.2480364,1.9609286)">
	<g>
		
			<path id="path2477_1_" sodipodi:ry="1.8910944" sodipodi:rx="1.8910944" sodipodi:cy="12.8353" sodipodi:cx="45.104614" sodipodi:type="arc" d="
			M25.902,3.96c-0.552,3.354,1.723,6.521,5.081,7.073c3.358,0.553,6.527-1.718,7.079-5.073c0-0.002,0-0.004,0-0.006
			c0.553-3.354-1.722-6.521-5.08-7.073c-3.358-0.552-6.527,1.719-7.079,5.073C25.902,3.956,25.902,3.958,25.902,3.96z"/>
	</g>
	<g>
		<path d="M44.764,74.434c-0.162,0-0.321-0.05-0.456-0.145c-0.171-0.121-0.286-0.305-0.321-0.511L39.04,44.375
			c-0.128-0.116-0.254-0.243-0.381-0.372c-0.287-0.291-0.586-0.593-0.803-0.593c-0.109,0-0.259,0.064-0.434,0.188
			c-0.038,0.026-0.076,0.05-0.118,0.068l-9.344,4.45L26.44,63.464c-0.041,0.415-0.391,0.765-0.815,0.709l-4.884-0.188
			c-0.433-0.016-0.771-0.38-0.757-0.813c0.222-6.5,0.915-13.845,1.489-18.551c0.029-0.239,0.166-0.451,0.371-0.576
			c1.528-0.933,3.394-1.947,5.369-3.02c1.739-0.944,3.533-1.921,5.396-2.995c-0.284-1.821-0.537-4.032-0.803-6.361
			c-0.248-2.172-0.503-4.401-0.785-6.29c-0.514,1.394-1.088,2.558-1.81,3.683c-0.622,0.818-3.458,2.201-10.018,5.212
			c-1.289,0.592-2.5,1.148-3.476,1.61c-0.12,0.057-0.252,0.085-0.384,0.074c-0.779-0.046-1.443-0.543-1.868-1.399
			c-0.543-1.092-0.673-2.866,0.05-3.945c0.056-0.084,0.128-0.157,0.212-0.213c1.926-1.309,4.528-2.594,6.824-3.726
			c1.992-0.983,4.05-1.999,4.574-2.539c0.52-0.921,0.976-2.568,1.417-4.163c0.232-0.838,0.464-1.675,0.708-2.431
			c0.485-4.276,5.381-5.2,8.02-5.698c0.388-0.073,0.735-0.139,1.019-0.205l0.56-0.071c1.794-0.221,2.37-0.145,6.323,2.202
			c1.173,0.817,5.095,4.905,10.106,10.167l1.519,1.593c0.075,0.08,0.134,0.174,0.171,0.278c0.897,2.498,1.597,5.152,2.338,7.963
			c0.488,1.847,0.991,3.758,1.556,5.618c0.068,0.224,0.033,0.466-0.095,0.662c-0.714,1.084-2.003,1.732-3.442,1.732
			c-1.142,0-2.057-0.432-2.381-1.126c-0.016-0.036-0.03-0.074-0.042-0.112L49.35,28.393c-2.233-2.003-3.938-3.36-5.854-4.842
			l6.787,49.178c0.058,0.42-0.226,0.81-0.647,0.882l-4.736,0.81C44.853,74.43,44.808,74.434,44.764,74.434z"/>
	</g>
	<g>
		<path d="M39.554,79.952c-2.275,0-4.411-0.173-6.347-0.514c-8.78-2.238-8.014-6.235-7.762-7.547
			c0.015-0.079,0.03-0.144,0.034-0.194c0.027-0.292,0.216-0.574,0.488-0.685c1.067-0.437,3.163-0.153,5.523,0.228
			c1.035,0.168,2.106,0.34,3.139,0.45c7.538,0.757,14.881,1.069,21.986,1.369c3.559,0.152,7.233,0.308,10.896,0.518
			c0.403,0.024,0.722,0.344,0.742,0.745c0.02,0.401-0.265,0.753-0.663,0.816c-1.467,0.233-3.529,0.738-5.921,1.321
			C55.654,77.936,47.408,79.952,39.554,79.952z"/>
	</g>
	<g>
		<path d="M23.252,67.529c-3.941,0-7.311-0.153-10.305-0.467c-0.697-0.126-1.371-0.212-2.053-0.299
			c-3.988-0.513-8.951-1.149-8.149-8.391c0.007-0.064,0.022-0.126,0.045-0.188c0.167-0.446,0.592-0.674,1.264-0.674
			c1.371,0,4.483,0.862,7.293,1.67c0.589,0.17,1.029,0.297,1.212,0.339l6.784,1.236l27.859,4.318
			c0.401,0.062,0.689,0.418,0.667,0.822c-0.024,0.404-0.35,0.724-0.755,0.74c-2.441,0.098-4.902,0.219-7.359,0.34
			C34.246,67.249,28.55,67.529,23.252,67.529z"/>
	</g>
</g>
<g>
	<path d="M73.389,67.259c-0.447,0-0.859-0.243-1.076-0.637L57.551,39.937c-0.158-0.289-0.195-0.619-0.105-0.932
		c0.092-0.317,0.301-0.58,0.59-0.738c0.564-0.312,1.354-0.09,1.667,0.483l14.763,26.688c0.16,0.291,0.196,0.625,0.104,0.939
		c-0.092,0.314-0.303,0.575-0.592,0.732C73.801,67.206,73.596,67.259,73.389,67.259z"/>
</g>
<g>
	<path d="M15.899,65.38l-0.163-0.011c-0.678-0.096-1.146-0.719-1.052-1.389l4.162-30.21c0.083-0.604,0.605-1.06,1.216-1.06
		l0.167,0.011c0.325,0.044,0.614,0.213,0.812,0.475c0.198,0.261,0.282,0.584,0.237,0.909L17.116,64.32
		C17.033,64.925,16.51,65.38,15.899,65.38z"/>
</g>
</svg>
