<?xml version="1.0" encoding="UTF-8" standalone="no"?>
<!-- Created with Inkscape (http://www.inkscape.org/) -->
<svg xmlns:svg="http://www.w3.org/2000/svg" xmlns="http://www.w3.org/2000/svg" version="1.0" width="10" height="10" id="svg4870">
  <defs id="defs4872"/>
  <g transform="scale(0.01666, 0.01666)" id="layer0">
    <g transform="translate(-11.4286, -122.067)" id="layer1">
      <path d="M 11.428849,366.21837 A 354.28571,354.28571 0 1 1 11.428589,366.64787" transform="matrix(0.845276, 0, 0, 0.84519, 1.76827, 111.619)" style="fill:#ffffff; fill-opacity: 1; fill-rule: evenodd; stroke: none; stroke-width: 1.18311px; stroke-linecap: butt; stroke-linejoin: miter; stroke-opacity: 1;" id="path4878"/>
      <path d="M -188.57142,60.933608 C -188.53024,60.808349 -28.419523,62.597182 -28.312581,62.520051 C -28.20564,62.44292 20.631335,-90.048372 20.763188,-90.047914 C 20.895042,-90.047455 68.670695,62.779669 68.777097,62.857542 C 68.8835,62.935414 229.00279,62.259736 229.0431,62.385278 C 229.08341,62.51082 98.499666,155.17434 98.458485,155.2996 C 98.417304,155.42486 148.53949,307.49856 148.43255,307.57569 C 148.32561,307.65282 19.844767,212.09491 19.712913,212.09445 C 19.581059,212.09399 -109.56102,306.75638 -109.66742,306.67851 C -109.77382,306.60064 -58.595605,154.87907 -58.635915,154.75353 C -58.676224,154.62799 -188.61261,61.058866 -188.57142,60.933608 z " transform="matrix(1.36475, -0.00891799, 0.00891799, 1.36475, 283.078, 243.366)" style="fill: #888888; fill-opacity: 1; fill-rule: nonzero; stroke: none; stroke-width: 4; stroke-linecap: butt; stroke-miterlimit: 2; stroke-dasharray: none; stroke-opacity: 1;" id="path4880"/>
    </g>
  </g>
</svg>